<svg xmlns="http://www.w3.org/2000/svg" xmlns:xlink="http://www.w3.org/1999/xlink" width="1090" height="1073.79"><rect width="1090" height="1073.79" rx="0" ry="0" class="a"></rect><svg height="1063.79" viewBox="0 0 108 106.379" width="1080" x="5" xmlns="http://www.w3.org/2000/svg" xmlns:xlink="http://www.w3.org/1999/xlink" y="5"><style>.a{fill:rgb(40,45,53)}.b{font-family:'Fira Code',Monaco,Consolas,Menlo,'Bitstream Vera Sans Mono','Powerline Symbols',monospace}.c{fill:rgb(185,192,203);white-space:pre}.d{fill:rgb(219,171,121);white-space:pre}.e{fill:rgb(185,191,202);white-space:pre}.f{fill:transparent}.g{fill:rgb(185,191,202);font-style:italic;font-weight:bold;text-decoration:underline;white-space:pre}.h{fill:rgb(210,144,228);font-style:italic;font-weight:bold;white-space:pre}.i{fill:rgb(168,204,140);white-space:pre}.j{fill:rgb(102,194,205);font-weight:bold;text-decoration:underline;white-space:pre}.k{fill:rgb(219,171,121)}.l{fill:rgb(232,131,136)}.m{fill:rgb(168,204,140);font-style:italic;white-space:pre}</style><g font-family="&#x27;Fira Code&#x27;,Monaco,Consolas,Menlo,&#x27;Bitstream Vera Sans Mono&#x27;,&#x27;Powerline Symbols&#x27;,monospace" font-size="1.67" class="b"><defs><symbol id="1"><text x="0" y="1.67" class="c">+</text><text x="1.002" y="1.67" class="d">---------------------------------------------------------------------------------------------------------</text><text x="106.21199999999999" y="1.67" class="c">+</text></symbol><symbol id="2"><text x="0" y="1.67" class="d">|</text><text x="31.061999999999998" y="1.67" class="c">+----------+------------+-------------------+</text><text x="106.21199999999999" y="1.67" class="d">|</text></symbol><symbol id="3"><text x="0" y="1.67" class="d">|</text><text x="2.004" y="1.67" class="c">+-----------------------+-------------------------+-------------------------+-------------------------+</text><text x="106.21199999999999" y="1.67" class="d">|</text></symbol><symbol id="4"><text x="0" y="1.67" class="e">|</text><text x="2.004" y="1.67" class="d">+------------------+----------------------------------------------------------------------------------+</text><text x="106.21199999999999" y="1.67" class="e">|</text></symbol><symbol id="a"><rect height="50" width="108" x="0" y="0" class="f"></rect></symbol></defs><rect height="106.379" width="108" class="a"></rect><svg x="0" y="0" width="108"><svg x="0"><use xlink:href="#a"></use><use xlink:href="#1" y="0"></use><text x="0" y="3.8409999999999997" class="d">|</text><text x="47.093999999999994" y="3.8409999999999997" class="d">tabulate</text><text x="56.111999999999995" y="3.8409999999999997" class="d">for</text><text x="60.11999999999999" y="3.8409999999999997" class="d">R</text><text x="106.21199999999999" y="3.8409999999999997" class="d">|</text><text x="0" y="6.012" class="d">|</text><text x="36.071999999999996" y="6.012" class="g">https://github.com/mlverse/tabulate</text><text x="106.21199999999999" y="6.012" class="d">|</text><use xlink:href="#1" y="6.513"></use><text x="0" y="10.354" class="d">|</text><text x="24.048" y="10.354" class="h">tabulate</text><text x="33.065999999999995" y="10.354" class="h">is</text><text x="36.071999999999996" y="10.354" class="h">a</text><text x="38.07599999999999" y="10.354" class="h">thin</text><text x="43.086" y="10.354" class="h">wrapper</text><text x="51.102" y="10.354" class="h">around</text><text x="58.116" y="10.354" class="h">the</text><text x="62.123999999999995" y="10.354" class="h">Tabulate</text><text x="71.142" y="10.354" class="h">C++</text><text x="75.14999999999999" y="10.354" class="h">library.</text><text x="106.21199999999999" y="10.354" class="d">|</text><use xlink:href="#2" y="10.855"></use><text x="0" y="14.696" class="d">|</text><text x="31.061999999999998" y="14.696" class="c">|</text><text x="33.065999999999995" y="14.696" class="c">Aligned,</text><text x="42.083999999999996" y="14.696" class="c">|</text><text x="44.087999999999994" y="14.696" class="c">Formatted,</text><text x="55.10999999999999" y="14.696" class="c">|</text><text x="57.114" y="14.696" class="c">Colorized</text><text x="67.134" y="14.696" class="c">tables.</text><text x="75.14999999999999" y="14.696" class="c">|</text><text x="106.21199999999999" y="14.696" class="d">|</text><use xlink:href="#2" y="15.197"></use><use xlink:href="#1" y="17.368"></use><text x="0" y="23.380000000000003" class="c">+</text><text x="1.002" y="23.380000000000003" class="i">---------------------------------------------------------------------------------------------------------</text><text x="106.21199999999999" y="23.380000000000003" class="c">+</text><text x="0" y="25.550999999999995" class="i">|</text><text x="32.064" y="25.550999999999995" class="j">Easily</text><text x="39.077999999999996" y="25.550999999999995" class="j">format</text><text x="46.09199999999999" y="25.550999999999995" class="j">and</text><text x="50.1" y="25.550999999999995" class="j">align</text><text x="56.111999999999995" y="25.550999999999995" class="j">content</text><text x="64.128" y="25.550999999999995" class="j">within</text><text x="71.142" y="25.550999999999995" class="j">cells</text><text x="106.21199999999999" y="25.550999999999995" class="i">|</text><use xlink:href="#3" y="26.052"></use><text x="0" y="29.893" class="d">|</text><text x="2.004" y="29.893" class="c">|</text><text x="5.01" y="29.893" class="c">Horizontal</text><text x="16.032" y="29.893" class="c">Alignment</text><text x="26.052" y="29.893" class="c">:</text><text x="28.055999999999997" y="29.893" class="c">Left</text><text x="33.065999999999995" y="29.893" class="c">aligned</text><text x="52.104" y="29.893" class="c">|</text><text x="59.117999999999995" y="29.893" class="c">Center</text><text x="66.13199999999999" y="29.893" class="c">aligned</text><text x="78.15599999999999" y="29.893" class="c">|</text><text x="90.17999999999999" y="29.893" class="c">Right</text><text x="96.192" y="29.893" class="c">aligned</text><text x="104.208" y="29.893" class="c">|</text><text x="106.21199999999999" y="29.893" class="d">|</text><use xlink:href="#3" y="30.394"></use><text x="0" y="34.235" class="d">|</text><text x="2.004" y="34.235" class="c">|</text><text x="8.016" y="34.235" class="c">Word-Wrapping</text><text x="26.052" y="34.235" class="c">:</text><text x="28.055999999999997" y="34.235" class="c">Long</text><text x="33.065999999999995" y="34.235" class="c">sentences</text><text x="52.104" y="34.235" class="c">|</text><text x="57.114" y="34.235" class="c">Word-wrapping</text><text x="71.142" y="34.235" class="c">also</text><text x="78.15599999999999" y="34.235" class="c">|</text><text x="96.192" y="34.235" class="c">Enforce</text><text x="104.208" y="34.235" class="c">|</text><text x="106.21199999999999" y="34.235" class="d">|</text><text x="0" y="36.406" class="d">|</text><text x="2.004" y="36.406" class="c">|</text><text x="7.013999999999999" y="36.406" class="c">algorithm</text><text x="17.034" y="36.406" class="c">taken</text><text x="26.052" y="36.406" class="c">:</text><text x="28.055999999999997" y="36.406" class="c">automatically</text><text x="42.083999999999996" y="36.406" class="c">word-wrap</text><text x="52.104" y="36.406" class="c">|</text><text x="57.114" y="36.406" class="c">plays</text><text x="63.12599999999999" y="36.406" class="c">nicely</text><text x="70.13999999999999" y="36.406" class="c">with</text><text x="78.15599999999999" y="36.406" class="c">|</text><text x="83.16599999999998" y="36.406" class="c">custom</text><text x="90.17999999999999" y="36.406" class="c">word-wrapping</text><text x="104.208" y="36.406" class="c">|</text><text x="106.21199999999999" y="36.406" class="d">|</text><text x="0" y="38.577000000000005" class="d">|</text><text x="2.004" y="38.577000000000005" class="c">|</text><text x="7.013999999999999" y="38.577000000000005" class="c">shamelessly</text><text x="19.037999999999997" y="38.577000000000005" class="c">from</text><text x="26.052" y="38.577000000000005" class="c">:</text><text x="28.055999999999997" y="38.577000000000005" class="c">based</text><text x="34.068" y="38.577000000000005" class="c">on</text><text x="37.074" y="38.577000000000005" class="c">the</text><text x="41.082" y="38.577000000000005" class="c">width</text><text x="47.093999999999994" y="38.577000000000005" class="c">of</text><text x="52.104" y="38.577000000000005" class="c">|</text><text x="56.111999999999995" y="38.577000000000005" class="c">alignment</text><text x="66.13199999999999" y="38.577000000000005" class="c">rules.</text><text x="73.146" y="38.577000000000005" class="c">For</text><text x="78.15599999999999" y="38.577000000000005" class="c">|</text><text x="86.172" y="38.577000000000005" class="c">by</text><text x="89.178" y="38.577000000000005" class="c">embedding</text><text x="99.198" y="38.577000000000005" class="c">&#x27;\n&#x27;</text><text x="104.208" y="38.577000000000005" class="c">|</text><text x="106.21199999999999" y="38.577000000000005" class="d">|</text><text x="0" y="40.748000000000005" class="d">|</text><text x="2.004" y="40.748000000000005" class="c">|</text><text x="8.016" y="40.748000000000005" class="c">StackOverflow</text><text x="26.052" y="40.748000000000005" class="c">:</text><text x="28.055999999999997" y="40.748000000000005" class="c">the</text><text x="32.064" y="40.748000000000005" class="c">column</text><text x="52.104" y="40.748000000000005" class="c">|</text><text x="55.10999999999999" y="40.748000000000005" class="c">instance,</text><text x="65.13" y="40.748000000000005" class="c">this</text><text x="70.13999999999999" y="40.748000000000005" class="c">cell</text><text x="75.14999999999999" y="40.748000000000005" class="c">is</text><text x="78.15599999999999" y="40.748000000000005" class="c">|</text><text x="80.16" y="40.748000000000005" class="c">characters</text><text x="91.182" y="40.748000000000005" class="c">in</text><text x="94.18799999999999" y="40.748000000000005" class="c">your</text><text x="99.198" y="40.748000000000005" class="c">cell</text><text x="104.208" y="40.748000000000005" class="c">|</text><text x="106.21199999999999" y="40.748000000000005" class="d">|</text><text x="0" y="42.919" class="d">|</text><text x="2.004" y="42.919" class="c">|</text><text x="26.052" y="42.919" class="c">:</text><text x="52.104" y="42.919" class="c">|</text><text x="58.116" y="42.919" class="c">center</text><text x="65.13" y="42.919" class="c">aligned.</text><text x="78.15599999999999" y="42.919" class="c">|</text><text x="95.19" y="42.919" class="c">content.</text><text x="104.208" y="42.919" class="c">|</text><text x="106.21199999999999" y="42.919" class="d">|</text><use xlink:href="#3" y="43.42"></use><use xlink:href="#1" y="45.591"></use><use xlink:href="#1" y="49.933"></use><text x="0" y="53.774" class="d">|</text><text x="43.086" y="53.774" class="c">Nested</text><text x="50.1" y="53.774" class="c">Representations</text><text x="106.21199999999999" y="53.774" class="d">|</text><use xlink:href="#4" y="54.275"></use><text x="0" y="58.11600000000001" class="e">|</text><text x="2.004" y="58.11600000000001" class="d">|</text><text x="4.008" y="58.11600000000001" class="d">You</text><text x="8.016" y="58.11600000000001" class="d">can</text><text x="12.024" y="58.11600000000001" class="d">even</text><text x="21.041999999999998" y="58.11600000000001" class="d">|</text><text x="23.045999999999996" y="58.11600000000001" class="d">+---------------+--------------------------------------------------------------+</text><text x="104.208" y="58.11600000000001" class="d">|</text><text x="106.21199999999999" y="58.11600000000001" class="e">|</text><text x="0" y="60.287" class="e">|</text><text x="2.004" y="60.287" class="d">|</text><text x="4.008" y="60.287" class="d">embed</text><text x="10.02" y="60.287" class="d">tables...</text><text x="21.041999999999998" y="60.287" class="d">|</text><text x="23.045999999999996" y="60.287" class="d">|</text><text x="25.05" y="60.287" class="d">within</text><text x="32.064" y="60.287" class="d">tables</text><text x="39.077999999999996" y="60.287" class="d">|</text><text x="41.082" y="60.287" class="d">+---------------+------------------------------------------+</text><text x="102.204" y="60.287" class="d">|</text><text x="104.208" y="60.287" class="d">|</text><text x="106.21199999999999" y="60.287" class="e">|</text><text x="0" y="62.458" class="e">|</text><text x="2.004" y="62.458" class="d">|</text><text x="21.041999999999998" y="62.458" class="d">|</text><text x="23.045999999999996" y="62.458" class="d">|</text><text x="39.077999999999996" y="62.458" class="d">|</text><text x="41.082" y="62.458" class="d">|</text><text x="43.086" y="62.458" class="d">within</text><text x="50.1" y="62.458" class="d">tables</text><text x="57.114" y="62.458" class="d">|</text><text x="59.117999999999995" y="62.458" class="d">+---------------+----------------------+</text><text x="100.2" y="62.458" class="d">|</text><text x="102.204" y="62.458" class="d">|</text><text x="104.208" y="62.458" class="d">|</text><text x="106.21199999999999" y="62.458" class="e">|</text><text x="0" y="64.629" class="e">|</text><text x="2.004" y="64.629" class="d">|</text><text x="21.041999999999998" y="64.629" class="d">|</text><text x="23.045999999999996" y="64.629" class="d">|</text><text x="39.077999999999996" y="64.629" class="d">|</text><text x="41.082" y="64.629" class="d">|</text><text x="57.114" y="64.629" class="d">|</text><text x="59.117999999999995" y="64.629" class="d">|</text><text x="61.12199999999999" y="64.629" class="d">within</text><text x="68.136" y="64.629" class="d">tables</text><text x="75.14999999999999" y="64.629" class="d">|</text><text x="77.154" y="64.629" class="d">+------------------+</text><text x="98.196" y="64.629" class="d">|</text><text x="100.2" y="64.629" class="d">|</text><text x="102.204" y="64.629" class="d">|</text><text x="104.208" y="64.629" class="d">|</text><text x="106.21199999999999" y="64.629" class="e">|</text><text x="0" y="66.8" class="e">|</text><text x="2.004" y="66.8" class="d">|</text><text x="21.041999999999998" y="66.8" class="d">|</text><text x="23.045999999999996" y="66.8" class="d">|</text><text x="39.077999999999996" y="66.8" class="d">|</text><text x="41.082" y="66.8" class="d">|</text><text x="57.114" y="66.8" class="d">|</text><text x="59.117999999999995" y="66.8" class="d">|</text><text x="75.14999999999999" y="66.8" class="d">|</text><text x="77.154" y="66.8" class="d">|</text><text x="79.158" y="66.8" class="d">within</text><text x="86.172" y="66.8" class="d">tables..</text><text x="96.192" y="66.8" class="d">|</text><text x="98.196" y="66.8" class="d">|</text><text x="100.2" y="66.8" class="d">|</text><text x="102.204" y="66.8" class="d">|</text><text x="104.208" y="66.8" class="d">|</text><text x="106.21199999999999" y="66.8" class="e">|</text><text x="0" y="68.971" class="e">|</text><text x="2.004" y="68.971" class="d">|</text><text x="21.041999999999998" y="68.971" class="d">|</text><text x="23.045999999999996" y="68.971" class="d">|</text><text x="39.077999999999996" y="68.971" class="d">|</text><text x="41.082" y="68.971" class="d">|</text><text x="57.114" y="68.971" class="d">|</text><text x="59.117999999999995" y="68.971" class="d">|</text><text x="75.14999999999999" y="68.971" class="d">|</text><text x="77.154" y="68.971" class="d">+------------------+</text><text x="98.196" y="68.971" class="d">|</text><text x="100.2" y="68.971" class="d">|</text><text x="102.204" y="68.971" class="d">|</text><text x="104.208" y="68.971" class="d">|</text><text x="106.21199999999999" y="68.971" class="e">|</text><text x="0" y="71.142" class="e">|</text><text x="2.004" y="71.142" class="d">|</text><text x="21.041999999999998" y="71.142" class="d">|</text><text x="23.045999999999996" y="71.142" class="d">|</text><text x="39.077999999999996" y="71.142" class="d">|</text><text x="41.082" y="71.142" class="d">|</text><text x="57.114" y="71.142" class="d">|</text><text x="59.117999999999995" y="71.142" class="d">+---------------+----------------------+</text><text x="100.2" y="71.142" class="d">|</text><text x="102.204" y="71.142" class="d">|</text><text x="104.208" y="71.142" class="d">|</text><text x="106.21199999999999" y="71.142" class="e">|</text><text x="0" y="73.313" class="e">|</text><text x="2.004" y="73.313" class="d">|</text><text x="21.041999999999998" y="73.313" class="d">|</text><text x="23.045999999999996" y="73.313" class="d">|</text><text x="39.077999999999996" y="73.313" class="d">|</text><text x="41.082" y="73.313" class="d">+---------------+------------------------------------------+</text><text x="102.204" y="73.313" class="d">|</text><text x="104.208" y="73.313" class="d">|</text><text x="106.21199999999999" y="73.313" class="e">|</text><text x="0" y="75.48400000000001" class="e">|</text><text x="2.004" y="75.48400000000001" class="d">|</text><text x="21.041999999999998" y="75.48400000000001" class="d">|</text><text x="23.045999999999996" y="75.48400000000001" class="d">+---------------+--------------------------------------------------------------+</text><text x="104.208" y="75.48400000000001" class="d">|</text><text x="106.21199999999999" y="75.48400000000001" class="e">|</text><use xlink:href="#4" y="75.985"></use><text x="0" y="79.82600000000001" class="c">+</text><text x="1.002" y="79.82600000000001" class="e">---------------------------------------------------------------------------------------------------------</text><text x="106.21199999999999" y="79.82600000000001" class="c">+</text><text x="1.002" y="81.997" class="e">90</text><text x="1.002" y="84.16799999999999" class="e">80</text><rect height="2.171" width="2" x="24.048" y="82.49799999999999" class="k"></rect><text x="24.048" y="84.16799999999999" class="e">  </text><text x="1.002" y="86.339" class="e">70</text><rect height="2.171" width="2" x="24.048" y="84.669" class="k"></rect><text x="24.048" y="86.339" class="e">  </text><rect height="2.171" width="2" x="32.064" y="84.669" class="l"></rect><text x="32.064" y="86.339" class="e">  </text><text x="35.06999999999999" y="86.339" class="e">Batch</text><text x="41.082" y="86.339" class="e">1</text><text x="1.002" y="88.51" class="e">60</text><rect height="2.171" width="2" x="22.043999999999997" y="86.84" class="l"></rect><text x="22.043999999999997" y="88.51" class="e">  </text><rect height="2.171" width="2" x="24.048" y="86.84" class="k"></rect><text x="24.048" y="88.51" class="e">  </text><text x="1.002" y="90.681" class="e">50</text><rect height="2.171" width="2" x="16.032" y="89.011" class="k"></rect><text x="16.032" y="90.681" class="e">  </text><rect height="2.171" width="2" x="22.043999999999997" y="89.011" class="l"></rect><text x="22.043999999999997" y="90.681" class="e">  </text><rect height="2.171" width="2" x="24.048" y="89.011" class="k"></rect><text x="24.048" y="90.681" class="e">  </text><rect height="2.171" width="2" x="32.064" y="89.011" class="k"></rect><text x="32.064" y="90.681" class="e">  </text><text x="35.06999999999999" y="90.681" class="e">Batch</text><text x="41.082" y="90.681" class="e">2</text><text x="54.108" y="90.681" class="e">Cells,</text><text x="61.12199999999999" y="90.681" class="e">rows,</text><text x="67.134" y="90.681" class="e">and</text><text x="71.142" y="90.681" class="e">columns</text><text x="1.002" y="92.852" class="e">40</text><rect height="2.171" width="2" x="14.027999999999999" y="91.182" class="l"></rect><text x="14.027999999999999" y="92.852" class="e">  </text><rect height="2.171" width="2" x="16.032" y="91.182" class="k"></rect><text x="16.032" y="92.852" class="e">  </text><rect height="2.171" width="2" x="22.043999999999997" y="91.182" class="l"></rect><text x="22.043999999999997" y="92.852" class="e">  </text><rect height="2.171" width="2" x="24.048" y="91.182" class="k"></rect><text x="24.048" y="92.852" class="e">  </text><text x="54.108" y="92.852" class="e">can</text><text x="58.116" y="92.852" class="e">be</text><text x="61.12199999999999" y="92.852" class="e">independently</text><text x="75.14999999999999" y="92.852" class="e">formatted.</text><text x="1.002" y="95.02300000000001" class="e">30</text><rect height="2.171" width="2" x="8.016" y="93.35300000000001" class="k"></rect><text x="8.016" y="95.02300000000001" class="e">  </text><rect height="2.171" width="2" x="14.027999999999999" y="93.35300000000001" class="l"></rect><text x="14.027999999999999" y="95.02300000000001" class="e">  </text><rect height="2.171" width="2" x="16.032" y="93.35300000000001" class="k"></rect><text x="16.032" y="95.02300000000001" class="e">  </text><rect height="2.171" width="2" x="22.043999999999997" y="93.35300000000001" class="l"></rect><text x="22.043999999999997" y="95.02300000000001" class="e">  </text><rect height="2.171" width="2" x="24.048" y="93.35300000000001" class="k"></rect><text x="24.048" y="95.02300000000001" class="e">  </text><text x="1.002" y="97.19399999999999" class="e">20</text><rect height="2.171" width="2" x="6.012" y="95.52399999999999" class="l"></rect><text x="6.012" y="97.19399999999999" class="e">  </text><rect height="2.171" width="2" x="8.016" y="95.52399999999999" class="k"></rect><text x="8.016" y="97.19399999999999" class="e">  </text><rect height="2.171" width="2" x="14.027999999999999" y="95.52399999999999" class="l"></rect><text x="14.027999999999999" y="97.19399999999999" class="e">  </text><rect height="2.171" width="2" x="16.032" y="95.52399999999999" class="k"></rect><text x="16.032" y="97.19399999999999" class="e">  </text><rect height="2.171" width="2" x="22.043999999999997" y="95.52399999999999" class="l"></rect><text x="22.043999999999997" y="97.19399999999999" class="e">  </text><rect height="2.171" width="2" x="24.048" y="95.52399999999999" class="k"></rect><text x="24.048" y="97.19399999999999" class="e">  </text><text x="54.108" y="97.19399999999999" class="m">This</text><text x="59.117999999999995" y="97.19399999999999" class="m">cell</text><text x="64.128" y="97.19399999999999" class="m">is</text><text x="67.134" y="97.19399999999999" class="m">green</text><text x="73.146" y="97.19399999999999" class="m">and</text><text x="77.154" y="97.19399999999999" class="m">italic</text><text x="1.002" y="99.365" class="e">10</text><rect height="2.171" width="2" x="6.012" y="97.695" class="l"></rect><text x="6.012" y="99.365" class="e">  </text><rect height="2.171" width="2" x="8.016" y="97.695" class="k"></rect><text x="8.016" y="99.365" class="e">  </text><rect height="2.171" width="2" x="14.027999999999999" y="97.695" class="l"></rect><text x="14.027999999999999" y="99.365" class="e">  </text><rect height="2.171" width="2" x="16.032" y="97.695" class="k"></rect><text x="16.032" y="99.365" class="e">  </text><rect height="2.171" width="2" x="22.043999999999997" y="97.695" class="l"></rect><text x="22.043999999999997" y="99.365" class="e">  </text><rect height="2.171" width="2" x="24.048" y="97.695" class="k"></rect><text x="24.048" y="99.365" class="e">  </text><text x="69.13799999999999" y="99.365" class="d">This</text><text x="74.148" y="99.365" class="d">one&#x27;s</text><text x="80.16" y="99.365" class="d">yellow</text><text x="87.17399999999999" y="99.365" class="d">and</text><text x="91.182" y="99.365" class="d">right-aligned</text><text x="8.016" y="101.536" class="e">4</text><text x="16.032" y="101.536" class="e">8</text><text x="24.048" y="101.536" class="e">12</text><text x="54.108" y="101.536" class="e">This</text><text x="59.117999999999995" y="101.536" class="e">one&#x27;s</text><text x="65.13" y="101.536" class="e">on</text><text x="68.136" y="101.536" class="e">🔥🔥🔥</text></svg></svg></g></svg></svg>