<svg xmlns="http://www.w3.org/2000/svg" xmlns:xlink="http://www.w3.org/1999/xlink" width="1040" height="300.52"><rect width="1040" height="300.52" rx="0" ry="0" class="a"></rect><svg height="260.52" viewBox="0 0 100 26.052" width="1000" x="20" xmlns="http://www.w3.org/2000/svg" xmlns:xlink="http://www.w3.org/1999/xlink" y="20"><style>.a{fill:rgb(40,45,53)}.b{font-family:'Fira Code',Monaco,Consolas,Menlo,'Bitstream Vera Sans Mono','Powerline Symbols',monospace}.c{fill:rgb(185,192,203);white-space:pre}.d{fill:transparent}.e{fill:rgb(232,131,136);font-weight:bold;white-space:pre}</style><g font-family="&#x27;Fira Code&#x27;,Monaco,Consolas,Menlo,&#x27;Bitstream Vera Sans Mono&#x27;,&#x27;Powerline Symbols&#x27;,monospace" font-size="1.67" class="b"><defs><symbol id="1"><text x="0" y="1.67" class="c">+---------+------------+-----------+----------------------------+</text></symbol><symbol id="a"><rect height="13" width="100" x="0" y="0" class="d"></rect></symbol></defs><rect height="26.052" width="100" class="a"></rect><svg x="0" y="0" width="100"><svg x="0"><use xlink:href="#a"></use><use xlink:href="#1" y="0"></use><text x="0" y="3.8409999999999997" class="c">|</text><text x="2.004" y="3.8409999999999997" class="e">Emp.</text><text x="7.013999999999999" y="3.8409999999999997" class="e">ID</text><text x="10.02" y="3.8409999999999997" class="c">|</text><text x="12.024" y="3.8409999999999997" class="c">First</text><text x="18.035999999999998" y="3.8409999999999997" class="c">Name</text><text x="23.045999999999996" y="3.8409999999999997" class="c">|</text><text x="25.05" y="3.8409999999999997" class="c">Last</text><text x="30.059999999999995" y="3.8409999999999997" class="c">Name</text><text x="35.06999999999999" y="3.8409999999999997" class="c">|</text><text x="37.074" y="3.8409999999999997" class="c">Department</text><text x="48.096" y="3.8409999999999997" class="c">/</text><text x="50.1" y="3.8409999999999997" class="c">Business</text><text x="59.117999999999995" y="3.8409999999999997" class="c">Unit</text><text x="64.128" y="3.8409999999999997" class="c">|</text><use xlink:href="#1" y="4.342"></use><text x="0" y="8.183" class="c">|</text><text x="6.012" y="8.183" class="e">101</text><text x="10.02" y="8.183" class="c">|</text><text x="12.024" y="8.183" class="c">Donald</text><text x="23.045999999999996" y="8.183" class="c">|</text><text x="25.05" y="8.183" class="c">Patrick</text><text x="35.06999999999999" y="8.183" class="c">|</text><text x="47.093999999999994" y="8.183" class="c">Finance</text><text x="64.128" y="8.183" class="c">|</text><use xlink:href="#1" y="8.684"></use><text x="0" y="12.525" class="c">|</text><text x="6.012" y="12.525" class="e">102</text><text x="10.02" y="12.525" class="c">|</text><text x="12.024" y="12.525" class="c">Rachel</text><text x="23.045999999999996" y="12.525" class="c">|</text><text x="25.05" y="12.525" class="c">Williams</text><text x="35.06999999999999" y="12.525" class="c">|</text><text x="38.07599999999999" y="12.525" class="c">Marketing</text><text x="48.096" y="12.525" class="c">and</text><text x="52.104" y="12.525" class="c">Operational</text><text x="64.128" y="12.525" class="c">|</text><text x="0" y="14.696" class="c">|</text><text x="10.02" y="14.696" class="c">|</text><text x="23.045999999999996" y="14.696" class="c">|</text><text x="35.06999999999999" y="14.696" class="c">|</text><text x="41.082" y="14.696" class="c">Logistics</text><text x="51.102" y="14.696" class="c">Planning</text><text x="64.128" y="14.696" class="c">|</text><use xlink:href="#1" y="15.197"></use><text x="0" y="19.037999999999997" class="c">|</text><text x="6.012" y="19.037999999999997" class="e">103</text><text x="10.02" y="19.037999999999997" class="c">|</text><text x="12.024" y="19.037999999999997" class="c">Ian</text><text x="23.045999999999996" y="19.037999999999997" class="c">|</text><text x="25.05" y="19.037999999999997" class="c">Jacob</text><text x="35.06999999999999" y="19.037999999999997" class="c">|</text><text x="37.074" y="19.037999999999997" class="c">+----------+-------------+</text><text x="64.128" y="19.037999999999997" class="c">|</text><text x="0" y="21.209000000000003" class="c">|</text><text x="10.02" y="21.209000000000003" class="c">|</text><text x="23.045999999999996" y="21.209000000000003" class="c">|</text><text x="35.06999999999999" y="21.209000000000003" class="c">|</text><text x="37.074" y="21.209000000000003" class="c">|</text><text x="39.077999999999996" y="21.209000000000003" class="c">Research</text><text x="48.096" y="21.209000000000003" class="c">|</text><text x="50.1" y="21.209000000000003" class="c">Engineering</text><text x="62.123999999999995" y="21.209000000000003" class="c">|</text><text x="64.128" y="21.209000000000003" class="c">|</text><text x="0" y="23.380000000000003" class="c">|</text><text x="10.02" y="23.380000000000003" class="c">|</text><text x="23.045999999999996" y="23.380000000000003" class="c">|</text><text x="35.06999999999999" y="23.380000000000003" class="c">|</text><text x="37.074" y="23.380000000000003" class="c">+----------+-------------+</text><text x="64.128" y="23.380000000000003" class="c">|</text><use xlink:href="#1" y="23.880999999999997"></use></svg></svg></g></svg></svg>